<?xml version="1.0" encoding="UTF-8"?>
<svg id="Camada_1" data-name="Camada 1" xmlns="http://www.w3.org/2000/svg" viewBox="0 0 1920 300">
  <defs>
    <style>
      .cls-1 {
        fill: #0053d4;
      }

      .cls-2 {
        fill: #1d1d1b;
      }

      .cls-3 {
        fill: #1d1e1b;
      }
    </style>
  </defs>
  <path class="cls-1" d="M806.99,253.89V97.32h25.07v156.56h-25.07Z"/>
  <path class="cls-1" d="M806.99,253.89V97.32h24.95v15.05h2.45c3.83-3.83,7.91-6.85,12.23-9.05,4.32-2.2,8.89-3.75,13.7-4.65,4.81-.9,9.87-1.35,15.17-1.35h45.38c13.94,0,26.05,2.53,36.33,7.58,10.27,5.06,18.22,12.15,23.85,21.28,5.63,9.13,8.44,19.86,8.44,32.17v95.53h-25.07v-95.53c0-10.93-3.45-19.75-10.34-26.48-6.89-6.73-17.96-10.09-33.21-10.09h-45.38c-15.17,0-26.22,3.36-33.15,10.09-6.93,6.73-10.4,15.55-10.4,26.48v95.53h-24.95Z"/>
  <g>
    <path class="cls-1" d="M816.38,45.19c12.22-1.09,20.23,13.02,12.64,22.77-1.62,2.07-3.68,2.75-4.74,5.39-.33.81-.37,1.61-.76,2.29l-11.85-.04c-.14-.1-.24-1.27-.34-1.6-.83-2.79-3.01-3.53-4.71-5.55-7.37-8.73-1.39-22.26,9.75-23.25Z"/>
    <path class="cls-1" d="M811.7,77.73h11.86l.21.21v2.77c0,.75-1.01,1.99-1.64,2.38-.43.27-1.07.37-1.42.66-.47.4-.53,1.18-1.25,1.66-1.57,1.06-3.27.47-4.35-.9-.19-.24-.29-.75-.5-.89-.4-.26-1.11-.34-1.7-.79-1.53-1.18-1.47-3.38-1.2-5.11Z"/>
  </g>
  <path class="cls-1" d="M1004.55,254.87v-25.57h25.57v25.57h-25.57Z"/>
  <path class="cls-2" d="M26.38,231.68v-18.23h94.44c6.87,0,12.52-1.26,16.96-3.78,4.44-2.52,6.65-6.7,6.65-12.53s-2.22-10.01-6.65-12.54c-4.44-2.52-10.09-3.78-16.96-3.78h-57.34c-7.9,0-15.01-1.06-21.33-3.19-6.32-2.13-11.32-5.62-15-10.48-3.68-4.86-5.51-11.36-5.51-19.51s1.84-14.6,5.51-19.37c3.68-4.77,8.67-8.17,15-10.21,6.32-2.04,13.43-3.05,21.33-3.05h94.99v18.23H61.12c-6.26,0-11.29,1.23-15.09,3.69-3.8,2.46-5.7,6.03-5.7,10.71s1.9,8.27,5.7,10.76c3.8,2.49,8.83,3.74,15.09,3.74h57.89c8.08,0,15.47,1.16,22.15,3.46,6.69,2.31,12.02,6.02,16,11.12,3.98,5.1,5.97,11.91,5.97,20.42s-1.99,15.21-5.97,20.28c-3.98,5.08-9.31,8.72-16,10.94-6.69,2.22-14.07,3.33-22.15,3.33H26.38Z"/>
  <path class="cls-2" d="M185.85,231.68c-7.6,0-14.57-1.32-20.92-3.97-6.35-2.64-11.43-6.62-15.22-11.94-3.8-5.32-5.7-11.93-5.7-19.83s1.9-14.55,5.7-19.78c3.8-5.23,8.92-9.15,15.36-11.76,6.44-2.61,13.58-3.92,21.42-3.92h70.28v-2.28c0-7.05-2.58-12.97-7.75-17.78-5.17-4.8-13.4-7.2-24.7-7.2h-73.29v-18.23h73.29c10.39,0,19.42,1.85,27.07,5.56,7.66,3.71,13.58,8.8,17.78,15.27,4.19,6.47,6.29,13.93,6.29,22.38v73.47h-18.69v-11.3h-1.82c-2.8,2.92-5.82,5.2-9.07,6.84-3.25,1.64-6.67,2.8-10.26,3.46-3.59.67-7.35,1-11.3,1h-38.47ZM224.32,213.45c11.3,0,19.54-2.51,24.7-7.52,5.16-5.01,7.75-11.59,7.75-19.74v-7.48h-71.2c-7.11,0-12.7,1.5-16.77,4.51-4.07,3.01-6.11,7.25-6.11,12.72s2.01,9.83,6.02,12.9c4.01,3.07,9.33,4.6,15.95,4.6h39.65Z"/>
  <path class="cls-2" d="M256.52,231.68v-116.69h19.83v11.21h1.82c2.86-2.86,5.89-5.1,9.12-6.75,3.22-1.64,6.62-2.79,10.21-3.46,3.59-.67,7.35-1,11.3-1h24.52c9.05,0,17.06,1.46,24.02,4.38,6.96,2.92,12.56,7.17,16.82,12.76h1.82c4.31-5.59,9.95-9.85,16.91-12.76,6.96-2.92,14.96-4.38,24.02-4.38h24.43c10.39,0,19.42,1.88,27.07,5.65,7.66,3.77,13.58,9.06,17.78,15.86,4.19,6.81,6.29,14.8,6.29,23.98v71.2h-18.69v-71.2c0-8.14-2.57-14.72-7.7-19.74-5.14-5.01-13.39-7.52-24.75-7.52h-24.43c-11.37,0-19.61,2.51-24.75,7.52-5.14,5.01-7.7,11.59-7.7,19.74v71.2h-18.69v-71.2c0-8.14-2.58-14.72-7.75-19.74-5.17-5.01-13.4-7.52-24.7-7.52h-24.52c-11.3,0-19.54,2.51-24.7,7.52-5.17,5.01-7.75,11.59-7.75,19.74v71.2h-19.83Z"/>
  <path class="cls-2" d="M473.47,231.68V68.32h18.6v57.89h1.82c2.86-2.86,5.89-5.1,9.12-6.75,3.22-1.64,6.62-2.79,10.21-3.46,3.59-.67,7.35-1,11.3-1h24.8c12.46,0,23.25,2.16,32.36,6.47,9.12,4.32,16.18,10.79,21.2,19.42,5.01,8.63,7.52,19.45,7.52,32.45s-2.51,23.82-7.52,32.45c-5.01,8.63-12.08,15.1-21.2,19.42-9.12,4.32-19.9,6.47-32.36,6.47h-24.8c-3.95,0-7.72-.33-11.3-1-3.59-.67-6.99-1.82-10.21-3.46-3.22-1.64-6.26-3.89-9.12-6.75h-1.82v11.21h-18.6ZM549.32,213.45c28.32,0,42.48-13.37,42.48-40.11s-14.16-40.11-42.48-40.11h-24.8c-11.3,0-19.54,2.51-24.7,7.52-5.17,5.01-7.75,11.59-7.75,19.74v25.71c0,8.14,2.58,14.72,7.75,19.74,5.16,5.01,13.4,7.52,24.7,7.52h24.8Z"/>
  <path class="cls-2" d="M631.23,231.68c-7.6,0-14.57-1.32-20.92-3.97-6.35-2.64-11.43-6.62-15.22-11.94-3.8-5.32-5.7-11.93-5.7-19.83s1.9-14.55,5.7-19.78c3.8-5.23,8.92-9.15,15.36-11.76,6.44-2.61,13.58-3.92,21.42-3.92h70.28v-2.28c0-7.05-2.58-12.97-7.75-17.78-5.17-4.8-13.4-7.2-24.7-7.2h-90.52l-25.74-18.23h116.26c10.39,0,19.42,1.85,27.07,5.56,7.66,3.71,13.58,8.8,17.78,15.27,4.19,6.47,6.29,13.93,6.29,22.38v73.47h-18.69v-11.3h-1.82c-2.8,2.92-5.82,5.2-9.07,6.84-3.25,1.64-6.67,2.8-10.26,3.46-3.59.67-7.35,1-11.3,1h-38.47ZM669.7,213.45c11.3,0,19.54-2.51,24.7-7.52,5.16-5.01,7.75-11.59,7.75-19.74v-7.48h-71.2c-7.11,0-12.7,1.5-16.77,4.51-4.07,3.01-6.11,7.25-6.11,12.72s2.01,9.83,6.02,12.9c4.01,3.07,9.33,4.6,15.95,4.6h39.65Z"/>
  <path class="cls-2" d="M1527.87,238.82c-11.3,0-21.13-2.06-29.5-6.18-8.37-4.12-14.87-9.9-19.49-17.34-4.62-7.44-6.93-16.18-6.93-26.22v-67.18h-1.99c0,1.46-1.16,3.37-3.49,5.73-2.33,2.36-5.52,3.54-9.57,3.54h-18.04v-19.94h33.09v-35.68h20.43v44.96h1.99c0-1.46,1.16-3.37,3.49-5.73,2.33-2.36,5.52-3.54,9.57-3.54h80.14v19.94h-95.19v57.91c0,8.91,2.82,16.1,8.47,21.58,5.65,5.48,14.65,8.22,27.01,8.22h64.79v19.94h-64.79Z"/>
  <path class="cls-2" d="M1573.36,238.82v-127.59h20.33v12.26h1.99c3.12-3.12,6.44-5.58,9.97-7.38,3.52-1.79,7.24-3.06,11.16-3.79,3.92-.73,8.04-1.1,12.36-1.1h36.98c11.36,0,21.23,2.06,29.6,6.18,8.37,4.12,14.85,9.9,19.44,17.34,4.59,7.44,6.88,16.18,6.88,26.22v77.85h-20.43v-77.85c0-8.9-2.81-16.1-8.42-21.58-5.62-5.48-14.64-8.22-27.06-8.22h-36.98c-12.36,0-21.37,2.74-27.01,8.22-5.65,5.48-8.47,12.68-8.47,21.58v77.85h-20.33Z"/>
  <path class="cls-2" d="M1707.03,238.82v-19.94h103.27c7.51,0,13.69-1.38,18.54-4.14,4.85-2.76,7.28-7.33,7.28-13.71s-2.43-10.95-7.28-13.71c-4.85-2.76-11.03-4.14-18.54-4.14h-62.7c-8.64,0-16.41-1.16-23.33-3.49-6.91-2.33-12.38-6.15-16.4-11.46-4.02-5.32-6.03-12.43-6.03-21.33s2.01-15.96,6.03-21.18c4.02-5.22,9.48-8.94,16.4-11.16,6.91-2.23,14.69-3.34,23.33-3.34h103.86v19.94h-106.46c-6.85,0-12.34,1.35-16.5,4.04-4.15,2.69-6.23,6.6-6.23,11.71s2.08,9.04,6.23,11.76c4.15,2.73,9.65,4.09,16.5,4.09h63.3c8.84,0,16.91,1.26,24.22,3.79,7.31,2.53,13.14,6.58,17.49,12.16,4.35,5.58,6.53,13.02,6.53,22.33s-2.18,16.63-6.53,22.18c-4.35,5.55-10.18,9.54-17.49,11.96-7.31,2.43-15.38,3.64-24.22,3.64h-101.27Z"/>
  <path class="cls-1" d="M1872.84,230.99v-25.52h25.52v25.52h-25.52Z"/>
  <path class="cls-2" d="M1088.97,230.99v-127.36h20.4v127.36h-20.4Z"/>
  <g>
    <path class="cls-1" d="M1096.62,61.22c9.94-.89,16.46,10.59,10.28,18.52-1.31,1.69-2.99,2.24-3.85,4.38-.27.66-.3,1.31-.62,1.87l-9.64-.03c-.11-.08-.2-1.03-.28-1.3-.67-2.27-2.44-2.87-3.83-4.51-6-7.1-1.13-18.11,7.93-18.92Z"/>
    <path class="cls-1" d="M1092.8,87.7h9.64l.17.17v2.26c0,.61-.82,1.62-1.34,1.93-.35.22-.87.3-1.15.54-.38.33-.43.96-1.02,1.35-1.27.86-2.66.38-3.54-.73-.16-.2-.23-.61-.41-.72-.32-.21-.91-.27-1.39-.64-1.24-.96-1.19-2.75-.98-4.15Z"/>
  </g>
  <path class="cls-2" d="M1384.16,238.82l-56.61-127.59h18.87l40.33,92.3c1.02,2.26,1.93,4.49,2.71,6.68.78,2.19,1.4,4.12,1.86,5.78.46,1.66.69,2.79.69,3.39h1.62c0-.6.23-1.73.69-3.39.46-1.66,1.08-3.59,1.86-5.78.78-2.19,1.66-4.42,2.63-6.68l39.68-92.3h18.46l-56.2,127.59h-16.6Z"/>
  <path class="cls-3" d="M1216.75,231.92v-127.36h20.3v12.24h1.99c3.12-3.12,6.43-5.57,9.95-7.36,3.52-1.79,7.23-3.05,11.14-3.78,3.91-.73,8.03-1.09,12.34-1.09h36.91c11.34,0,21.19,2.06,29.55,6.17,8.36,4.11,14.83,9.88,19.4,17.31,4.58,7.43,6.87,16.15,6.87,26.17v77.71h-20.4v-77.71c0-8.89-2.8-16.07-8.41-21.54-5.61-5.47-14.61-8.21-27.01-8.21h-36.91c-12.34,0-21.33,2.74-26.96,8.21-5.64,5.47-8.46,12.65-8.46,21.54v77.71h-20.3Z"/>
  <path class="cls-1" d="M1088.97,230.99v-127.36h20.3v12.24h1.99c3.12-3.12,6.43-5.57,9.95-7.36,3.52-1.79,7.23-3.05,11.14-3.78,3.91-.73,8.03-1.09,12.34-1.09h36.91c11.34,0,21.19,2.06,29.55,6.17,8.36,4.11,14.83,9.88,19.4,17.31,4.58,7.43,6.87,16.15,6.87,26.17v77.71h-20.4v-77.71c0-8.89-2.8-16.07-8.41-21.54-5.61-5.47-14.61-8.21-27.01-8.21h-36.91c-12.34,0-21.33,2.74-26.96,8.21-5.64,5.47-8.46,12.65-8.46,21.54v77.71h-20.3Z"/>
</svg>