<?xml version="1.0" encoding="UTF-8"?>
<svg id="Camada_1" data-name="Camada 1" xmlns="http://www.w3.org/2000/svg" xmlns:xlink="http://www.w3.org/1999/xlink" viewBox="0 0 1080 1080">
  <defs>
    <style>
      .cls-1 {
        fill: url(#Gradiente_sem_nome_43);
      }
    </style>
    <linearGradient id="Gradiente_sem_nome_43" data-name="Gradiente sem nome 43" x1="189.94" y1="540" x2="890.06" y2="540" gradientUnits="userSpaceOnUse">
      <stop offset="0" stop-color="#fce31d"/>
      <stop offset="1" stop-color="#b64c96"/>
    </linearGradient>
  </defs>
  <path class="cls-1" d="M873.49,484.41c-11.05-14.17-25.81-24.46-44.28-30.87-18.47-6.41-39.01-9.62-61.62-9.62h-47.08c-2.9-23.68-9.38-44.23-19.49-61.61-3.87-6.66-8.19-12.85-12.93-18.6h189.07v-50.61h-281.71c-14.35-2.64-29.69-3.97-46.06-3.97h-215.15c-11.17,0-21.82.95-31.95,2.84-10.14,1.89-19.76,5.15-28.86,9.79-9.11,4.64-17.7,10.99-25.77,19.07h-5.15v-31.69h-52.56v461.74h52.56v-163.62h5.15c8.07,8.08,16.66,14.43,25.77,19.07,9.1,4.63,18.72,7.9,28.86,9.79,10.13,1.89,20.78,2.83,31.95,2.83h215.15c11.45,0,22.4-.66,32.86-1.95h185.35c22.6,0,43.14-3.07,61.62-9.24,18.47-6.16,33.23-16.28,44.28-30.36,11.05-14.08,16.57-32.85,16.57-56.3s-5.53-42.51-16.57-56.68ZM667.1,443.92h-202.65c-17.38,0-31.34-3.46-41.88-10.37-10.55-6.92-15.82-16.87-15.82-29.86s5.27-22.9,15.82-29.73c10.54-6.83,24.5-10.25,41.88-10.25h121.14c46.54,8.58,73.71,35.31,81.51,80.21ZM264.41,566.15c-14.6-14.17-21.9-32.77-21.9-55.79v-72.66c0-23.02,7.3-41.61,21.9-55.78,14.6-14.17,37.88-21.26,69.83-21.26h29.29c-5.76,11.7-8.64,26.04-8.64,43.03,0,22.61,5.1,40.66,15.31,54.15,10.2,13.5,24.08,23.2,41.63,29.1,17.54,5.91,37.28,8.86,59.21,8.86h197.12c-6.68,54.64-39.07,84.83-97.16,90.59h-202.95v1.02h-33.8c-31.95,0-55.23-7.08-69.83-21.25ZM819.84,575.89c-12.23,7-27.88,10.5-46.94,10.5h-86.5c5.41-6.31,10.29-13.18,14.62-20.62,11.27-19.4,18.05-42.74,20.35-69.97h51.53c19.06,0,34.71,3.5,46.94,10.5,12.23,7,18.35,18.6,18.35,34.79s-6.12,27.8-18.35,34.79Z"/>
</svg>