<?xml version="1.0" encoding="UTF-8"?>
<svg id="Camada_1" data-name="Camada 1" xmlns="http://www.w3.org/2000/svg" xmlns:xlink="http://www.w3.org/1999/xlink" viewBox="0 0 1920 300">
  <defs>
    <style>
      .cls-1 {
        fill: url(#Gradiente_sem_nome_43-2);
      }

      .cls-2 {
        fill: url(#Gradiente_sem_nome_43);
      }

      .cls-3 {
        fill: #ededed;
      }
    </style>
    <linearGradient id="Gradiente_sem_nome_43" data-name="Gradiente sem nome 43" x1="846.93" y1="163.31" x2="1074.59" y2="163.31" gradientUnits="userSpaceOnUse">
      <stop offset="0" stop-color="#fce31d"/>
      <stop offset="1" stop-color="#b64c96"/>
    </linearGradient>
    <linearGradient id="Gradiente_sem_nome_43-2" data-name="Gradiente sem nome 43" x1="1159.25" y1="168.52" x2="1317.52" y2="168.52" xlink:href="#Gradiente_sem_nome_43"/>
  </defs>
  <g>
    <path class="cls-3" d="M70.53,219.8v-17.65h91.45c6.65,0,12.12-1.22,16.42-3.66,4.3-2.44,6.44-6.49,6.44-12.14s-2.15-9.7-6.44-12.14c-4.3-2.44-9.77-3.66-16.42-3.66h-55.52c-7.65,0-14.54-1.03-20.66-3.09-6.12-2.06-10.96-5.44-14.52-10.15-3.56-4.71-5.34-11-5.34-18.89s1.78-14.14,5.34-18.76c3.56-4.62,8.4-7.91,14.52-9.89,6.12-1.97,13-2.96,20.66-2.96h91.98v17.66h-94.27c-6.06,0-10.93,1.19-14.61,3.57-3.68,2.38-5.52,5.84-5.52,10.37s1.84,8,5.52,10.42c3.68,2.41,8.55,3.62,14.61,3.62h56.05c7.83,0,14.98,1.12,21.45,3.35,6.47,2.24,11.64,5.83,15.49,10.77,3.85,4.94,5.78,11.54,5.78,19.77s-1.93,14.73-5.78,19.64c-3.85,4.91-9.02,8.45-15.49,10.59-6.47,2.15-13.62,3.22-21.45,3.22h-89.68Z"/>
    <path class="cls-3" d="M224.94,219.8c-7.36,0-14.11-1.28-20.26-3.84-6.15-2.56-11.06-6.41-14.74-11.56-3.68-5.15-5.52-11.55-5.52-19.2s1.84-14.09,5.52-19.15c3.68-5.06,8.64-8.86,14.87-11.39,6.24-2.53,13.15-3.79,20.74-3.79h68.06v-2.21c0-6.83-2.5-12.56-7.5-17.21-5-4.65-12.98-6.97-23.92-6.97h-70.97v-17.66h70.97c10.06,0,18.8,1.8,26.22,5.39,7.42,3.59,13.15,8.52,17.21,14.79,4.06,6.27,6.09,13.49,6.09,21.67v71.15h-18.1v-10.95h-1.77c-2.71,2.82-5.64,5.03-8.78,6.62-3.15,1.59-6.46,2.71-9.93,3.35-3.47.65-7.12.97-10.95.97h-37.25ZM262.19,202.15c10.95,0,18.92-2.43,23.92-7.28,5-4.85,7.5-11.22,7.5-19.11v-7.24h-68.94c-6.88,0-12.3,1.46-16.24,4.37-3.94,2.91-5.91,7.02-5.91,12.31s1.94,9.52,5.83,12.49c3.88,2.97,9.03,4.46,15.45,4.46h38.4Z"/>
    <path class="cls-3" d="M293.38,219.8v-112.99h19.2v10.86h1.77c2.77-2.77,5.71-4.94,8.83-6.53,3.12-1.59,6.41-2.71,9.89-3.35,3.47-.65,7.12-.97,10.95-.97h23.75c8.77,0,16.52,1.41,23.26,4.24,6.74,2.82,12.17,6.94,16.29,12.36h1.77c4.18-5.41,9.64-9.53,16.37-12.36,6.74-2.82,14.49-4.24,23.26-4.24h23.66c10.06,0,18.8,1.82,26.22,5.47,7.41,3.65,13.15,8.77,17.21,15.36,4.06,6.59,6.09,14.33,6.09,23.22v68.94h-18.1v-68.94c0-7.89-2.49-14.26-7.46-19.11-4.97-4.85-12.96-7.28-23.97-7.28h-23.66c-11.01,0-18.99,2.43-23.97,7.28-4.97,4.85-7.46,11.23-7.46,19.11v68.94h-18.1v-68.94c0-7.89-2.5-14.26-7.5-19.11-5-4.85-12.98-7.28-23.92-7.28h-23.75c-10.95,0-18.92,2.43-23.92,7.28-5,4.85-7.5,11.23-7.5,19.11v68.94h-19.2Z"/>
    <path class="cls-3" d="M503.45,219.8V61.62h18.01v56.05h1.77c2.77-2.77,5.71-4.94,8.83-6.53,3.12-1.59,6.41-2.71,9.89-3.35,3.47-.65,7.12-.97,10.95-.97h24.01c12.06,0,22.51,2.09,31.34,6.27,8.83,4.18,15.67,10.45,20.52,18.8,4.85,8.36,7.28,18.83,7.28,31.43s-2.43,23.07-7.28,31.42c-4.85,8.36-11.7,14.62-20.52,18.8-8.83,4.18-19.27,6.27-31.34,6.27h-24.01c-3.83,0-7.47-.32-10.95-.97-3.47-.65-6.77-1.77-9.89-3.35-3.12-1.59-6.06-3.76-8.83-6.53h-1.77v10.86h-18.01ZM576.9,202.15c27.42,0,41.13-12.95,41.13-38.84s-13.71-38.84-41.13-38.84h-24.01c-10.95,0-18.92,2.43-23.92,7.28-5,4.85-7.5,11.23-7.5,19.11v24.89c0,7.89,2.5,14.26,7.5,19.11,5,4.85,12.98,7.28,23.92,7.28h24.01Z"/>
    <path class="cls-3" d="M656.22,219.8c-7.36,0-14.11-1.28-20.26-3.84-6.15-2.56-11.06-6.41-14.74-11.56-3.68-5.15-5.52-11.55-5.52-19.2s1.84-14.09,5.52-19.15c3.68-5.06,8.64-8.86,14.87-11.39,6.24-2.53,13.15-3.79,20.74-3.79h68.06v-2.21c0-6.83-2.5-12.56-7.5-17.21-5-4.65-12.98-6.97-23.92-6.97h-87.65l-24.93-17.66h112.58c10.06,0,18.8,1.8,26.22,5.39,7.42,3.59,13.15,8.52,17.21,14.79,4.06,6.27,6.09,13.49,6.09,21.67v71.15h-18.1v-10.95h-1.77c-2.71,2.82-5.64,5.03-8.78,6.62-3.15,1.59-6.46,2.71-9.93,3.35-3.47.65-7.12.97-10.95.97h-37.25ZM693.47,202.15c10.95,0,18.92-2.43,23.92-7.28,5-4.85,7.5-11.22,7.5-19.11v-7.24h-68.94c-6.88,0-12.3,1.46-16.24,4.37-3.94,2.91-5.91,7.02-5.91,12.31s1.94,9.52,5.83,12.49c3.88,2.97,9.03,4.46,15.45,4.46h38.4Z"/>
  </g>
  <path class="cls-3" d="M1336.92,197.94c-6.39,0-12.25-1.11-17.58-3.33-5.34-2.22-9.6-5.57-12.79-10.04-3.19-4.47-4.79-10.02-4.79-16.66s1.6-12.23,4.79-16.62c3.19-4.39,7.49-7.69,12.91-9.88,5.41-2.2,11.41-3.29,18-3.29h102.81v-1.91c0-5.92-2.17-10.9-6.51-14.94-4.34-4.03-11.26-6.05-20.76-6.05h-118.37l-28.5-15.32h146.88c8.73,0,16.32,1.56,22.75,4.67,6.44,3.12,11.41,7.39,14.94,12.83s5.29,11.71,5.29,18.81v61.75h-15.7v-9.5h-1.53c-2.35,2.45-4.89,4.37-7.62,5.75-2.73,1.38-5.61,2.35-8.62,2.91-3.01.56-6.18.84-9.5.84h-76.07ZM1413,182.61c9.5,0,16.42-2.11,20.76-6.32,4.34-4.21,6.51-9.74,6.51-16.59v-6.28h-103.58c-5.98,0-10.67,1.26-14.1,3.79-3.42,2.53-5.13,6.09-5.13,10.69s1.69,8.26,5.06,10.84c3.37,2.58,7.84,3.87,13.41,3.87h77.07Z"/>
  <path class="cls-3" d="M1440.43,237.16V99.88h15.63v9.42h1.53c2.4-2.4,4.95-4.29,7.66-5.67,2.71-1.38,5.57-2.35,8.58-2.91,3.01-.56,6.18-.84,9.5-.84h63.97c10.47,0,19.55,1.81,27.23,5.44,7.69,3.63,13.64,9.07,17.85,16.32,4.21,7.25,6.32,16.34,6.32,27.27s-2.11,20.02-6.32,27.27c-4.21,7.25-10.16,12.69-17.85,16.32-7.69,3.63-16.77,5.44-27.23,5.44h-63.97c-3.32,0-6.49-.28-9.5-.84-3.01-.56-5.87-1.53-8.58-2.91-2.71-1.38-5.26-3.27-7.66-5.67h-1.53v48.65h-15.63ZM1547.3,182.61c23.8,0,35.7-11.31,35.7-33.94s-11.9-33.48-35.7-33.48h-63.97c-9.5,0-16.42,2.11-20.76,6.32-4.34,4.21-6.51,9.74-6.51,16.59v21.6c0,6.84,2.17,12.37,6.51,16.59,4.34,4.21,11.26,6.32,20.76,6.32h63.97Z"/>
  <path class="cls-3" d="M1634.44,197.94c-10.42,0-19.49-1.81-27.2-5.44-7.71-3.63-13.67-9.07-17.89-16.32-4.21-7.25-6.32-16.34-6.32-27.27s2.11-20.02,6.32-27.27c4.21-7.25,10.18-12.69,17.89-16.32,7.71-3.63,16.78-5.44,27.2-5.44h63.97c10.47,0,19.55,1.81,27.23,5.44,7.69,3.63,13.64,9.07,17.85,16.32,4.21,7.25,6.32,16.34,6.32,27.27v4.52h-150.92c1.58,19.46,13.43,29.19,35.55,29.19h110.24v15.32h-110.24ZM1732.96,138.1c-3.47-15.27-14.99-22.91-34.55-22.91h-63.97c-19.61,0-31.15,7.64-34.63,22.91h133.15Z"/>
  <path class="cls-3" d="M1733.78,197.94v-98.06h15.63v9.42h1.53c2.4-2.4,4.95-4.29,7.66-5.67,2.71-1.38,5.57-2.35,8.58-2.91,3.01-.56,6.18-.84,9.5-.84h34.47c8.68,0,16.24,1.58,22.68,4.75,6.44,3.17,11.41,7.61,14.94,13.33s5.29,12.44,5.29,20.15h-15.63c0-6.84-2.17-12.37-6.51-16.59-4.34-4.21-11.26-6.32-20.76-6.32h-34.47c-9.5,0-16.42,2.11-20.76,6.32-4.34,4.21-6.51,9.74-6.51,16.59v59.83h-15.63Z"/>
  <path class="cls-2" d="M1069.2,145.23c-3.59-4.61-8.39-7.95-14.4-10.04-6.01-2.08-12.69-3.13-20.04-3.13h-15.33c-.94-7.69-3.03-14.38-6.32-20.04-1.26-2.17-2.68-4.18-4.22-6.05h61.5v-16.46h-91.69c-4.64-.85-9.6-1.29-14.89-1.29h-69.96c-3.63,0-7.09.31-10.39.92-3.3.61-6.42,1.68-9.38,3.18-2.96,1.51-5.75,3.57-8.38,6.2h-1.68v-10.31h-17.09v150.14h17.09v-53.2h1.68c2.62,2.63,5.42,4.69,8.38,6.2,2.96,1.51,6.09,2.57,9.38,3.18,3.3.62,6.76.92,10.39.92h69.96c3.67,0,7.16-.23,10.51-.63h60.44c7.35,0,14.03-1,20.04-3,6.01-2,10.81-5.29,14.4-9.87,3.59-4.58,5.39-10.68,5.39-18.31s-1.8-13.82-5.39-18.43ZM1002.08,132.07h-65.89c-5.65,0-10.19-1.12-13.62-3.37-3.43-2.25-5.14-5.49-5.14-9.71s1.71-7.45,5.14-9.67c3.43-2.22,7.97-3.33,13.62-3.33h39.36c15.14,2.78,23.98,11.48,26.52,26.08ZM871.15,171.81c-4.75-4.61-7.12-10.65-7.12-18.14v-23.63c0-7.48,2.37-13.53,7.12-18.14,4.75-4.61,12.32-6.91,22.71-6.91h9.52c-1.87,3.8-2.81,8.47-2.81,13.99,0,7.35,1.66,13.22,4.98,17.61,3.32,4.39,7.83,7.54,13.54,9.46,5.7,1.92,12.12,2.88,19.25,2.88h64.09c-2.17,17.76-12.7,27.59-31.59,29.46h-65.99v.33h-10.99c-10.39,0-17.96-2.3-22.71-6.91ZM1051.76,174.98c-3.98,2.28-9.07,3.42-15.26,3.42h-28.16c1.77-2.06,3.38-4.28,4.79-6.71,3.66-6.31,5.85-13.9,6.6-22.75h16.78c6.2,0,11.29,1.14,15.26,3.41,3.98,2.28,5.97,6.05,5.97,11.31s-1.99,9.04-5.97,11.31Z"/>
  <path class="cls-1" d="M1159.25,237.16V99.88h15.63v9.42h1.53c2.4-2.4,4.95-4.29,7.66-5.67,2.71-1.38,5.57-2.35,8.58-2.91,3.01-.56,6.18-.84,9.5-.84h63.97c10.47,0,19.55,1.81,27.23,5.44,7.69,3.63,13.64,9.07,17.85,16.32,4.21,7.25,6.32,16.34,6.32,27.27s-2.11,20.02-6.32,27.27c-4.21,7.25-10.16,12.69-17.85,16.32-7.69,3.63-16.77,5.44-27.23,5.44h-63.97c-3.32,0-6.49-.28-9.5-.84-3.01-.56-5.87-1.53-8.58-2.91-2.71-1.38-5.26-3.27-7.66-5.67h-1.53v48.65h-15.63ZM1266.12,182.61c23.8,0,35.7-11.31,35.7-33.94s-11.9-33.48-35.7-33.48h-63.97c-9.5,0-16.42,2.11-20.76,6.32-4.34,4.21-6.51,9.74-6.51,16.59v21.6c0,6.84,2.17,12.37,6.51,16.59,4.34,4.21,11.26,6.32,20.76,6.32h63.97Z"/>
</svg>