<?xml version="1.0" encoding="UTF-8"?>
<svg id="Camada_1" data-name="Camada 1" xmlns="http://www.w3.org/2000/svg" xmlns:xlink="http://www.w3.org/1999/xlink" viewBox="0 0 1080 1080">
  <defs>
    <style>
      .cls-1 {
        fill: #fff;
      }

      .cls-2 {
        fill: url(#Gradiente_sem_nome_43);
      }
    </style>
    <linearGradient id="Gradiente_sem_nome_43" data-name="Gradiente sem nome 43" x1="65.07" y1="540" x2="1014.93" y2="540" gradientUnits="userSpaceOnUse">
      <stop offset="0" stop-color="#fce31d"/>
      <stop offset="1" stop-color="#b64c96"/>
    </linearGradient>
  </defs>
  <rect class="cls-2" x="65.07" y="65.07" width="949.87" height="949.87" rx="180.61" ry="180.61"/>
  <path class="cls-1" d="M824.15,492.64c-9.42-12.07-21.99-20.84-37.73-26.3-15.74-5.46-33.24-8.19-52.5-8.19h-40.12c-2.47-20.17-7.99-37.68-16.6-52.5-3.3-5.67-6.98-10.95-11.02-15.85h161.1v-43.12h-240.04c-12.22-2.25-25.3-3.38-39.25-3.38h-183.32c-9.52,0-18.59.81-27.22,2.42-8.64,1.61-16.83,4.39-24.59,8.34-7.76,3.95-15.08,9.37-21.95,16.25h-4.39v-27.01h-44.79v393.43h44.79v-139.41h4.39c6.88,6.88,14.19,12.3,21.95,16.25,7.76,3.95,15.95,6.73,24.59,8.34,8.63,1.61,17.71,2.41,27.22,2.41h183.32c9.76,0,19.08-.56,27.99-1.66h157.93c19.26,0,36.76-2.62,52.5-7.87,15.74-5.25,28.32-13.87,37.73-25.87,9.41-12,14.12-27.99,14.12-47.97s-4.71-36.22-14.12-48.3ZM648.29,458.14h-172.67c-14.81,0-26.7-2.94-35.68-8.84-8.99-5.89-13.48-14.37-13.48-25.44s4.49-19.51,13.48-25.33c8.98-5.82,20.88-8.73,35.68-8.73h103.22c39.65,7.31,62.81,30.09,69.46,68.35ZM305.18,562.28c-12.44-12.08-18.66-27.92-18.66-47.53v-61.91c0-19.61,6.22-35.46,18.66-47.53,12.44-12.08,32.27-18.11,59.5-18.11h24.95c-4.91,9.97-7.37,22.19-7.37,36.66,0,19.26,4.35,34.64,13.04,46.14,8.7,11.5,20.52,19.77,35.47,24.79,14.95,5.03,31.76,7.55,50.45,7.55h167.96c-5.69,46.55-33.29,72.28-82.79,77.19h-172.93v.87h-28.8c-27.22,0-47.06-6.04-59.5-18.11ZM778.44,570.58c-10.42,5.97-23.75,8.95-39.99,8.95h-73.7c4.61-5.38,8.77-11.23,12.45-17.57,9.61-16.53,15.38-36.41,17.34-59.62h43.91c16.24,0,29.57,2.99,39.99,8.95,10.42,5.97,15.63,15.85,15.63,29.65s-5.21,23.68-15.63,29.65Z"/>
</svg>